<svg width="101" height="49" viewBox="0 0 101 49" fill="none" xmlns="http://www.w3.org/2000/svg">
<path d="M2.772 38H13.86C19.62 38 22.788 35.372 22.788 30.656C22.788 27.632 21.384 25.58 18.756 24.716C21.168 23.672 22.464 21.584 22.464 18.74C22.464 14.168 19.224 11.36 13.86 11.36L2.772 11.36L2.772 38ZM13.248 16.472C15.372 16.472 16.488 17.444 16.488 19.316C16.488 21.224 15.336 22.268 13.248 22.268L8.604 22.268L8.604 16.472L13.248 16.472ZM13.536 27.164C15.66 27.164 16.812 28.136 16.812 29.936C16.812 31.916 15.696 32.888 13.536 32.888H8.604L8.604 27.164L13.536 27.164ZM45.4334 38V32.6H34.3454V27.092H44.1734L44.1734 21.98H34.3454V16.76H45.4334V11.36L28.5134 11.36L28.5134 38H45.4334ZM57.7648 38L57.7648 21.08L68.9968 38H74.7568V11.36L68.9968 11.36V28.316L57.7648 11.36H52.0048L52.0048 38H57.7648ZM80.3483 19.1C80.3483 23.456 82.7963 26.156 87.5483 27.128L91.6163 27.956C93.3803 28.316 94.0643 29.072 94.0643 30.548C94.0643 32.24 92.4083 33.284 89.7803 33.284C87.1883 33.284 85.7483 32.204 85.7483 30.26H79.9523C79.9523 35.264 83.8043 38.468 89.7443 38.468C95.8643 38.468 99.8963 35.12 99.8963 29.972C99.8963 25.76 97.6283 23.492 92.8763 22.52L88.8803 21.692C87.0083 21.296 86.1803 20.504 86.1803 18.884C86.1803 17.12 87.6923 16.04 90.0683 16.04C92.2643 16.04 93.6683 17.192 93.6683 19.064L99.4643 19.064C99.4643 14.024 95.8643 10.856 90.1403 10.856C84.4163 10.856 80.3483 14.276 80.3483 19.1Z" fill="#FF5414"/>
</svg>
