<svg width="219" height="80" viewBox="0 0 219 80" fill="none" xmlns="http://www.w3.org/2000/svg">
<path d="M78.8728 52.3846C76.419 52.3846 74.2498 51.9022 72.3652 50.9383C70.4806 49.9521 69.0236 48.5606 67.9938 46.764C66.9639 44.9672 66.449 42.8528 66.449 40.4206C66.449 37.9883 66.9639 35.8739 67.9938 34.0771C69.0236 32.2584 70.4806 30.867 72.3652 29.9029C74.2498 28.9169 76.419 28.4238 78.8728 28.4238C80.5383 28.4238 82.0064 28.5991 83.2772 28.9497C84.5703 29.2784 85.7533 29.8043 86.8267 30.5274V35.2932C85.8629 34.5044 84.7564 33.9347 83.5075 33.5841C82.2803 33.2116 80.8781 33.0253 79.3004 33.0253C77.8323 33.0253 76.5063 33.3321 75.3232 33.9456C74.162 34.5372 73.2418 35.3918 72.5625 36.5093C71.8832 37.6268 71.5433 38.9305 71.5433 40.4206C71.5433 41.9325 71.8502 43.2582 72.4636 44.3976C73.0992 45.5151 73.9865 46.3806 75.1259 46.9941C76.2653 47.6076 77.5802 47.9144 79.0701 47.9144C80.4287 47.9144 81.6117 47.6734 82.6197 47.1913V42.7542H78.9058V39.073H87.4512V50.1495C85.282 51.6394 82.4229 52.3846 78.8728 52.3846Z" fill="#EADAC5"/>
<path d="M88.6052 36.1147H93.4037V38.3826C94.0393 37.6157 94.9266 37.035 96.066 36.6406C97.2054 36.2243 98.4985 36.0161 99.9443 36.0161V39.7959C98.4326 39.7959 97.0958 40.026 95.9346 40.4861C94.7952 40.9462 94.0064 41.6474 93.5681 42.5896V51.8913H88.6052V36.1147Z" fill="#EADAC5"/>
<path d="M109.482 52.3845C106.458 52.3845 104.081 51.6611 102.35 50.2148C100.619 48.7472 99.7533 46.6982 99.7533 44.0688C99.7533 41.4613 100.52 39.4016 102.054 37.8897C103.61 36.3778 105.823 35.6218 108.693 35.6218C110.578 35.6218 112.177 35.9724 113.492 36.6736C114.806 37.3747 115.804 38.3498 116.483 39.5988C117.162 40.8259 117.502 42.2173 117.502 43.773V45.7779H104.486C104.837 47.7939 106.721 48.802 110.139 48.802C111.147 48.802 112.188 48.7142 113.262 48.5387C114.336 48.3635 115.267 48.1225 116.056 47.8157V51.2999C115.289 51.6282 114.303 51.8914 113.097 52.0888C111.892 52.2856 110.687 52.3845 109.482 52.3845ZM112.802 42.5569C112.736 41.5051 112.341 40.6944 111.619 40.1247C110.896 39.5331 109.898 39.2372 108.627 39.2372C107.379 39.2372 106.392 39.5331 105.669 40.1247C104.947 40.7163 104.552 41.527 104.486 42.5569H112.802Z" fill="#EADAC5"/>
<path d="M127.675 52.3845C124.651 52.3845 122.273 51.6611 120.543 50.2148C118.812 48.7472 117.946 46.6982 117.946 44.0688C117.946 41.4613 118.713 39.4016 120.247 37.8897C121.802 36.3778 124.016 35.6218 126.886 35.6218C128.77 35.6218 130.37 35.9724 131.685 36.6736C132.999 37.3747 133.996 38.3498 134.675 39.5988C135.355 40.8259 135.695 42.2173 135.695 43.773V45.7779H122.679C123.029 47.7939 124.914 48.802 128.332 48.802C129.34 48.802 130.381 48.7142 131.455 48.5387C132.528 48.3635 133.459 48.1225 134.248 47.8157V51.2999C133.481 51.6282 132.496 51.8914 131.29 52.0888C130.085 52.2856 128.88 52.3845 127.675 52.3845ZM130.994 42.5569C130.929 41.5051 130.534 40.6944 129.811 40.1247C129.088 39.5331 128.091 39.2372 126.82 39.2372C125.571 39.2372 124.585 39.5331 123.862 40.1247C123.139 40.7163 122.745 41.527 122.679 42.5569H130.994Z" fill="#EADAC5"/>
<path d="M136.796 36.1148H141.595V38.054C142.318 37.2433 143.172 36.6407 144.159 36.2463C145.167 35.83 146.218 35.6218 147.314 35.6218C149.461 35.6218 151.061 36.2025 152.113 37.3638C153.186 38.5032 153.723 40.048 153.723 41.9982V51.8915H148.76V42.5569C148.76 40.5191 147.818 39.5002 145.933 39.5002C145.101 39.5002 144.323 39.7084 143.6 40.1247C142.877 40.5191 142.263 41.1107 141.759 41.8995V51.8915H136.796V36.1148Z" fill="#EADAC5"/>
<path d="M158.102 33.6825C157.335 33.6825 156.689 33.4305 156.163 32.9265C155.637 32.4225 155.374 31.7871 155.374 31.0202C155.374 30.2752 155.637 29.6507 156.163 29.1467C156.689 28.6208 157.335 28.3579 158.102 28.3579C158.869 28.3579 159.515 28.6208 160.041 29.1467C160.567 29.6507 160.83 30.2752 160.83 31.0202C160.83 31.7871 160.567 32.4225 160.041 32.9265C159.515 33.4305 158.869 33.6825 158.102 33.6825ZM155.604 36.1147H160.6V51.8913H155.604V36.1147Z" fill="#EADAC5"/>
<path d="M169.064 52.3845C167.881 52.3845 166.611 52.2527 165.252 51.9899C163.915 51.7489 162.864 51.3984 162.097 50.9382V47.0598C162.973 47.5857 164.025 48.013 165.252 48.3416C166.479 48.6701 167.618 48.8345 168.67 48.8345C169.569 48.8345 170.226 48.7579 170.642 48.6047C171.059 48.4512 171.266 48.1663 171.266 47.75C171.266 47.4213 171.146 47.1584 170.905 46.9612C170.664 46.7421 170.291 46.5558 169.788 46.4024C169.306 46.2271 168.495 45.9751 167.355 45.6465C166.019 45.2521 164.967 44.8577 164.2 44.4632C163.455 44.0469 162.885 43.532 162.491 42.9185C162.118 42.3049 161.932 41.5161 161.932 40.552C161.932 38.9086 162.578 37.6815 163.872 36.8708C165.186 36.0381 166.961 35.6218 169.196 35.6218C170.291 35.6218 171.42 35.7423 172.581 35.9834C173.764 36.2025 174.674 36.4983 175.31 36.8708V40.6506C174.674 40.2342 173.842 39.8946 172.811 39.6317C171.804 39.3687 170.818 39.2372 169.853 39.2372C168.955 39.2372 168.254 39.3249 167.75 39.5002C167.268 39.6755 167.027 40.0042 167.027 40.4863C167.027 40.9026 167.257 41.2203 167.717 41.4394C168.199 41.6585 169.087 41.9324 170.379 42.2611L171.037 42.4254C172.417 42.7979 173.491 43.2143 174.258 43.6744C175.025 44.1126 175.561 44.6495 175.868 45.2849C176.197 45.8984 176.361 46.6763 176.361 47.6185C176.361 49.0648 175.737 50.226 174.488 51.1026C173.239 51.9569 171.431 52.3845 169.064 52.3845Z" fill="#EADAC5"/>
<path d="M177.508 27.6021H182.471V37.9225C183.217 37.1556 184.06 36.5859 185.002 36.2134C185.944 35.819 186.952 35.6218 188.026 35.6218C190.174 35.6218 191.773 36.2024 192.825 37.3637C193.898 38.5032 194.435 40.048 194.435 41.9981V51.8914H189.473V42.5569C189.473 40.519 188.53 39.5002 186.646 39.5002C185.813 39.5002 185.035 39.7083 184.312 40.1247C183.589 40.519 182.976 41.1107 182.471 41.8995V51.8914H177.508V27.6021Z" fill="#EADAC5"/>
<path fill-rule="evenodd" clip-rule="evenodd" d="M49.4992 32.2524C49.4992 36.4275 46.1149 39.812 41.9399 39.812C37.7648 39.812 34.3803 36.4275 34.3803 32.2524C34.3803 28.0774 37.7648 24.6929 41.9399 24.6929C46.1149 24.6929 49.4992 28.0774 49.4992 32.2524ZM24.3557 39.2626C32.5917 38.7075 39.7696 44.8737 40.4382 53.1272C40.5075 53.9825 40.5041 54.8266 40.4334 55.6542C32.1974 56.2094 25.0195 50.0431 24.3509 41.7897C24.2817 40.9345 24.285 40.0901 24.3557 39.2626ZM45.7622 55.3653C54.0156 54.6967 60.1819 47.5188 59.6267 39.2828C58.7991 39.2121 57.955 39.2088 57.0997 39.2781C48.8461 39.9466 42.68 47.1245 43.2351 55.3604C44.0626 55.4312 44.9069 55.4346 45.7622 55.3653Z" fill="#EADAC5"/>
</svg>
