<svg width="129" height="36" viewBox="0 0 129 36" fill="none" xmlns="http://www.w3.org/2000/svg">
<g clip-path="url(#clip0_28_207)">
<path d="M86.5252 23.8154C85.9844 23.9757 85.3834 24.0625 84.7091 24.0625C84.1015 24.0625 83.5206 23.9556 82.9597 23.7487C82.3989 23.5417 81.8981 23.2546 81.4575 22.894C81.0168 22.5335 80.6562 22.0995 80.3892 21.5987C80.1221 21.098 79.9618 20.5438 79.9151 19.9362H92.6812C92.6278 17.5926 92.5143 15.9768 92.107 14.8484C91.6997 13.72 91.1322 12.7719 90.4111 12.0175C89.69 11.263 88.8287 10.6888 87.8405 10.3015C86.8523 9.91425 85.7707 9.72729 84.6022 9.72729C83.3403 9.72729 82.1719 9.94095 81.0902 10.3749C80.0086 10.8089 79.0671 11.4099 78.2726 12.191C77.4781 12.9722 76.8571 13.9137 76.4031 15.022C75.9491 16.1304 75.722 17.3589 75.722 18.7143C75.722 20.0898 75.9491 21.3183 76.4031 22.4066C76.8571 23.4883 77.4847 24.4097 78.2926 25.1508C79.1005 25.8986 80.0486 26.4728 81.1436 26.8801C82.2386 27.2874 83.4405 27.4944 84.7491 27.4944C86.1446 27.4944 87.3865 27.2607 88.4882 26.82C87.3598 26.2592 86.5786 25.1374 86.5252 23.8154ZM81.3707 14.0072C82.2453 13.2527 83.3136 12.8721 84.5689 12.8721C85.2432 12.8721 85.8308 12.9856 86.3382 13.2059C86.839 13.4263 87.2529 13.7267 87.5801 14.1006C87.9073 14.4745 88.1476 14.9018 88.2945 15.3959C88.4481 15.8833 88.5216 16.3975 88.5216 16.9316H79.9151C80.0086 15.7365 80.496 14.7616 81.3707 14.0072Z" fill="#EADAC5"/>
<path d="M90.0439 25.7985C91.2276 25.7985 92.1871 24.8389 92.1871 23.6552C92.1871 22.4715 91.2276 21.512 90.0439 21.512C88.8602 21.512 87.9006 22.4715 87.9006 23.6552C87.9006 24.8389 88.8602 25.7985 90.0439 25.7985Z" fill="#EADAC5"/>
<path d="M32.4761 14.2675C32.2558 13.4263 31.8619 12.6718 31.301 11.9974C30.7402 11.3231 29.979 10.7756 29.0109 10.3549C28.0427 9.93428 26.8142 9.72729 25.3186 9.72729C24.3104 9.72729 23.3088 9.86751 22.3207 10.1479C23.162 10.7956 23.7161 11.8038 23.7161 12.9455C23.7161 13.019 23.6961 13.0857 23.6961 13.1525C24.1101 13.0657 24.5374 13.019 24.9714 13.019C26.0196 13.019 26.921 13.2727 27.6822 13.7735C28.4367 14.2742 28.8172 15.0487 28.8172 16.097V16.5176C27.5086 16.5176 26.1799 16.5844 24.8111 16.7113C23.4491 16.8381 22.2072 17.1052 21.0855 17.4991C19.9637 17.8931 19.049 18.4673 18.3413 19.2151C17.6269 19.9629 17.273 20.9644 17.273 22.2197C17.273 23.2012 17.48 24.0224 17.8872 24.6834C18.2945 25.3511 18.8087 25.8853 19.4229 26.2925C20.0372 26.6998 20.7182 26.9936 21.4527 27.1672C22.1871 27.3408 22.8949 27.4276 23.5692 27.4276C24.7577 27.4276 25.8193 27.1872 26.7541 26.7132C27.6889 26.2324 28.3632 25.6249 28.7839 24.877H28.8907V27.0136H32.81V16.7981C32.81 15.9501 32.6965 15.1088 32.4761 14.2675ZM28.8172 19.9362C28.8172 21.2649 28.4433 22.3131 27.6955 23.081C26.9477 23.8488 25.8527 24.2361 24.4105 24.2361C24.0633 24.2361 23.7095 24.2027 23.3623 24.1292C23.0151 24.0558 22.6946 23.9423 22.4208 23.782C22.1404 23.6218 21.9134 23.4015 21.7398 23.1344C21.5662 22.8673 21.4794 22.5335 21.4794 22.1395C21.4794 21.5119 21.6864 21.0178 22.107 20.6506C22.5277 20.2901 23.0484 20.0096 23.6827 19.8093C24.3104 19.609 24.9981 19.4822 25.7459 19.4221C26.4937 19.362 27.2014 19.3353 27.8825 19.3353H28.8239V19.9362H28.8172Z" fill="#EADAC5"/>
<path d="M20.1774 15.0753C21.3592 15.0753 22.3207 14.1139 22.3207 12.9321C22.3207 11.7503 21.3592 10.7888 20.1774 10.7888C18.9956 10.7888 18.0341 11.7503 18.0341 12.9321C18.0341 14.1139 18.9956 15.0753 20.1774 15.0753Z" fill="#EADAC5"/>
<path d="M15.1698 13.9873C14.9361 13.1727 14.5689 12.4516 14.0681 11.8173C13.5673 11.1897 12.9264 10.6822 12.1452 10.295C11.364 9.90771 10.4226 9.72076 9.32755 9.72076C8.69993 9.72076 8.11236 9.80088 7.57822 9.96781C7.04407 10.128 6.56334 10.3484 6.1427 10.6155C5.72206 10.8825 5.35483 11.1897 5.04102 11.5235C4.72721 11.864 4.48684 12.2045 4.3266 12.5584H4.25983V5.46094C3.66559 5.90829 2.93781 6.18204 2.14327 6.18204C1.36208 6.18204 0.647658 5.92164 0.0667725 5.49432V27.0004H4.2665V17.8331C4.2665 17.2723 4.34663 16.7248 4.51355 16.1906C4.67379 15.6565 4.92084 15.1691 5.248 14.7417C5.57517 14.3078 5.98245 13.9672 6.46986 13.7068C6.95727 13.4531 7.54483 13.3196 8.21919 13.3196C8.89355 13.3196 9.43438 13.4598 9.84834 13.7402C10.2556 14.0206 10.5694 14.3745 10.7898 14.8085C11.0101 15.2425 11.157 15.7166 11.2238 16.244C11.2905 16.7715 11.3306 17.2789 11.3306 17.7664V27.0004H15.5303V16.5044C15.5237 15.6431 15.4035 14.8085 15.1698 13.9873Z" fill="#EADAC5"/>
<path d="M2.14327 4.78653C3.32507 4.78653 4.28653 3.82507 4.28653 2.64327C4.28653 1.46146 3.32507 0.5 2.14327 0.5C0.961465 0.5 0 1.46146 0 2.64327C0 3.82507 0.961465 4.78653 2.14327 4.78653Z" fill="#EADAC5"/>
<path d="M106.756 21.9993C107.337 21.5854 108.045 21.3316 108.812 21.3316C109.62 21.3316 110.355 21.6121 110.956 22.0728V16.511C110.956 15.6497 110.842 14.8084 110.609 13.9938C110.375 13.1792 110.008 12.4581 109.507 11.8238C109.006 11.1962 108.365 10.6888 107.584 10.3015C106.803 9.91425 105.861 9.72729 104.766 9.72729C103.504 9.72729 102.416 10.0478 101.495 10.6888C100.573 11.3297 99.9256 12.0709 99.5517 12.9121H99.4782V10.2214H95.4922V27.007H99.6919V17.7662C99.6919 17.2054 99.772 16.6512 99.9389 16.1037C100.099 15.5562 100.34 15.0688 100.653 14.6548C100.967 14.2342 101.368 13.8936 101.862 13.6199C102.349 13.3528 102.937 13.2193 103.611 13.2193C104.286 13.2193 104.826 13.3595 105.24 13.6399C105.648 13.9204 105.968 14.2742 106.202 14.7082C106.435 15.1422 106.589 15.6229 106.656 16.1571C106.723 16.6912 106.763 17.2054 106.763 17.6928V21.9993H106.756Z" fill="#EADAC5"/>
<path d="M108.812 27.0136C109.996 27.0136 110.956 26.054 110.956 24.8703C110.956 23.6866 109.996 22.7271 108.812 22.7271C107.629 22.7271 106.669 23.6866 106.669 24.8703C106.669 26.054 107.629 27.0136 108.812 27.0136Z" fill="#EADAC5"/>
<path d="M52.9941 15.0754C52.6002 14.0005 52.0393 13.0724 51.3182 12.2778C50.5971 11.4833 49.7291 10.8624 48.7276 10.4083C47.7261 9.95431 46.6311 9.72729 45.4426 9.72729C44.6747 9.72729 43.9804 9.81409 43.3594 9.98769C42.7385 10.1613 42.1843 10.3816 41.6969 10.6554C41.2095 10.9225 40.7955 11.2296 40.455 11.5634C40.1145 11.9039 39.8407 12.2311 39.6337 12.5583H39.5269V10.2147H35.5074V30.5323C36.1017 30.0917 36.8228 29.8179 37.6173 29.8179C38.3985 29.8179 39.1129 30.0783 39.7005 30.5123V24.7635H39.7673C40.3014 25.6048 41.0693 26.2658 42.0574 26.7599C43.0456 27.2473 44.1406 27.4944 45.3291 27.4944C46.611 27.4944 47.7594 27.254 48.7743 26.7799C49.7892 26.2992 50.6505 25.6582 51.3649 24.857C52.0727 24.0558 52.6269 23.1077 53.0074 22.026C53.3947 20.9444 53.5817 19.7826 53.5817 18.5474C53.5883 17.2988 53.388 16.1437 52.9941 15.0754ZM49.7759 20.497C49.5755 21.1514 49.2818 21.7323 48.8812 22.2464C48.4872 22.7605 47.9798 23.1811 47.3789 23.5083C46.7713 23.8355 46.0635 23.9957 45.2423 23.9957C44.4744 23.9957 43.7867 23.8355 43.1791 23.5216C42.5715 23.2078 42.0508 22.7939 41.6234 22.2798C41.1894 21.7656 40.8623 21.1914 40.6419 20.5505C40.4216 19.9095 40.3081 19.2618 40.3081 18.6075C40.3081 17.9532 40.4149 17.3055 40.6419 16.6512C40.8623 15.9968 41.1894 15.416 41.6234 14.9018C42.0574 14.3877 42.5715 13.9671 43.1791 13.6399C43.7867 13.3128 44.4744 13.1525 45.2423 13.1525C46.0569 13.1525 46.7713 13.3128 47.3789 13.6266C47.9865 13.9404 48.4872 14.3543 48.8812 14.8685C49.2751 15.3826 49.5755 15.9568 49.7759 16.5978C49.9762 17.2387 50.0763 17.8864 50.0763 18.5407C50.0763 19.1884 49.9762 19.8427 49.7759 20.497Z" fill="#EADAC5"/>
<path d="M37.6173 35.4999C38.801 35.4999 39.7606 34.5403 39.7606 33.3566C39.7606 32.173 38.801 31.2134 37.6173 31.2134C36.4336 31.2134 35.4741 32.173 35.4741 33.3566C35.4741 34.5403 36.4336 35.4999 37.6173 35.4999Z" fill="#EADAC5"/>
<path d="M73.2583 15.0754C72.8644 14.0005 72.3035 13.0724 71.5824 12.2778C70.8613 11.4833 69.9933 10.8624 68.9918 10.4083C67.9903 9.95431 66.8953 9.72729 65.7068 9.72729C64.939 9.72729 64.2446 9.81409 63.6236 9.98769C63.0027 10.1613 62.4485 10.3816 61.9611 10.6554C61.4737 10.9225 61.0597 11.2296 60.7192 11.5634C60.3787 11.9039 60.1049 12.2311 59.898 12.5583H59.7911V10.2147H55.7717V30.5323C56.3659 30.0917 57.087 29.8179 57.8816 29.8179C58.6627 29.8179 59.3772 30.0783 59.9647 30.5123V24.7635H60.0315C60.5656 25.6048 61.3335 26.2658 62.3217 26.7599C63.3098 27.2473 64.4048 27.4944 65.5933 27.4944C66.8753 27.4944 68.0237 27.254 69.0385 26.7799C70.0534 26.2992 70.9147 25.6582 71.6292 24.857C72.3369 24.0558 72.8911 23.1077 73.2717 22.026C73.6589 20.9444 73.8459 19.7826 73.8459 18.5474C73.8526 17.2988 73.6522 16.1437 73.2583 15.0754ZM70.0401 20.497C69.8398 21.1514 69.546 21.7323 69.1454 22.2464C68.7514 22.7605 68.244 23.1811 67.6431 23.5083C67.0355 23.8355 66.3278 23.9957 65.5065 23.9957C64.7387 23.9957 64.051 23.8355 63.4434 23.5216C62.8358 23.2078 62.315 22.7939 61.8877 22.2798C61.4537 21.7656 61.1265 21.1914 60.9062 20.5505C60.6858 19.9095 60.5723 19.2618 60.5723 18.6075C60.5723 17.9532 60.6791 17.3055 60.9062 16.6512C61.1265 15.9968 61.4537 15.416 61.8877 14.9018C62.3217 14.3877 62.8358 13.9671 63.4434 13.6399C64.051 13.3128 64.7387 13.1525 65.5065 13.1525C66.3211 13.1525 67.0355 13.3128 67.6431 13.6266C68.2507 13.9404 68.7514 14.3543 69.1454 14.8685C69.5393 15.3826 69.8398 15.9568 70.0401 16.5978C70.2404 17.2387 70.3405 17.8864 70.3405 18.5407C70.3405 19.1884 70.2404 19.8427 70.0401 20.497Z" fill="#EADAC5"/>
<path d="M57.8815 35.4999C59.0652 35.4999 60.0248 34.5403 60.0248 33.3566C60.0248 32.173 59.0652 31.2134 57.8815 31.2134C56.6979 31.2134 55.7383 32.173 55.7383 33.3566C55.7383 34.5403 56.6979 35.4999 57.8815 35.4999Z" fill="#EADAC5"/>
<path d="M125.318 14.6283C126.506 14.6283 127.461 13.6669 127.461 12.4851C127.461 11.3033 126.499 10.3418 125.318 10.3418C124.129 10.3418 123.168 11.3033 123.168 12.4851C123.168 13.6669 124.136 14.6283 125.318 14.6283Z" fill="#EADAC5"/>
<path d="M121.772 12.4783C121.772 11.6036 122.099 10.8158 122.627 10.1948H113.8V13.56H121.959C121.846 13.2194 121.772 12.8589 121.772 12.4783Z" fill="#EADAC5"/>
<path d="M125.491 16.0103C125.431 16.0103 125.378 16.0304 125.318 16.0304C123.882 16.0304 122.654 15.1757 122.099 13.9539L115.222 21.3318C115.322 21.3251 115.416 21.3051 115.516 21.3051C116.898 21.3051 118.087 22.1063 118.667 23.2614L125.491 16.0103Z" fill="#EADAC5"/>
<path d="M118.821 23.5886C118.968 23.9826 119.061 24.4032 119.061 24.8439C119.061 25.6718 118.768 26.4196 118.294 27.0205H127.888V23.5886H118.821V23.5886Z" fill="#EADAC5"/>
<path d="M115.516 22.6938C114.328 22.6938 113.373 23.6553 113.373 24.8438C113.373 26.0323 114.334 26.9871 115.516 26.9871C116.704 26.9871 117.659 26.0256 117.659 24.8438C117.659 23.6553 116.698 22.6938 115.516 22.6938Z" fill="#EADAC5"/>
</g>
<defs>
<clipPath id="clip0_28_207">
<rect width="128.042" height="35" fill="white" transform="translate(0 0.5)"/>
</clipPath>
</defs>
</svg>
