<svg width="88" height="16" viewBox="0 0 88 16" fill="none" xmlns="http://www.w3.org/2000/svg">
<path d="M3.59912 15.4C3.19912 15.6 2.79912 15.3 2.89912 14.8L3.69912 10.1L0.199117 6.8C-0.200883 6.5 -0.000882655 5.9 0.499117 5.8L5.39912 5.1L7.59912 0.8C7.79912 0.4 8.29912 0.4 8.49912 0.8L10.6991 5.1L15.5991 5.8C15.9991 5.9 16.1991 6.4 15.8991 6.7L12.3991 10.1L13.1991 14.8C13.2991 15.2 12.7991 15.6 12.4991 15.4L7.99912 13.2L3.59912 15.4Z" fill="black"/>
<path d="M21.6 15.4C21.2 15.6 20.8 15.3 20.9 14.8L21.7 10.1L18.2 6.7C17.9 6.4 18 5.8 18.5 5.8L23.4 5.1L25.6 0.8C25.8 0.4 26.3 0.4 26.5 0.8L28.7 5.1L33.6 5.8C34 5.9 34.2 6.4 33.9 6.7L30.4 10.1L31.2 14.8C31.3 15.2 30.8 15.6 30.5 15.4L26 13.2L21.6 15.4Z" fill="black"/>
<path d="M39.6 15.4C39.2 15.6 38.8 15.3 38.9 14.8L39.7 10.1L36.2 6.7C35.9 6.4 36 5.8 36.5 5.8L41.4 5.1L43.6 0.8C43.8 0.4 44.3 0.4 44.5 0.8L46.7 5.1L51.6 5.8C52 5.9 52.2 6.4 51.9 6.7L48.4 10.1L49.2 14.8C49.3 15.2 48.8 15.6 48.5 15.4L44 13.2L39.6 15.4Z" fill="black"/>
<path d="M57.6 15.4C57.2 15.6 56.8 15.3 56.9 14.8L57.7 10.1L54.2 6.7C53.9 6.4 54 5.8 54.5 5.8L59.4 5.1L61.6 0.8C61.8 0.4 62.3 0.4 62.5 0.8L64.7 5.1L69.6 5.8C70 5.9 70.2 6.4 69.9 6.7L66.4 10.1L67.2 14.8C67.3 15.2 66.8 15.6 66.5 15.4L62 13.2L57.6 15.4Z" fill="black"/>
<path d="M75.6 15.4C75.2 15.6 74.8 15.3 74.9 14.8L75.7 10.1L72.2 6.7C71.9 6.4 72 5.8 72.5 5.8L77.4 5.1L79.6 0.8C79.8 0.4 80.3 0.4 80.5 0.8L82.7 5.1L87.6 5.8C88 5.9 88.2 6.4 87.9 6.7L84.4 10.1L85.2 14.8C85.3 15.2 84.8 15.6 84.5 15.4L80 13.2L75.6 15.4Z" fill="black"/>
</svg>
