<svg width="197" height="70" viewBox="0 0 197 70" fill="none" xmlns="http://www.w3.org/2000/svg">
<path d="M147.86 20.2139V49.4117H152.133V20.2139H147.86Z" fill="#EADAC5"/>
<path fill-rule="evenodd" clip-rule="evenodd" d="M109.219 49.8831C107.533 49.8831 106.124 49.4904 104.993 48.7047C104.869 48.619 104.749 48.5295 104.632 48.4367V49.4118H100.861V20.6853H105.166V32.9917C106.222 32.3127 107.5 31.9732 108.999 31.9732C110.623 31.9732 112.036 32.3607 113.241 33.1358C114.446 33.9108 115.378 34.9739 116.037 36.325C116.708 37.6657 117.043 39.2001 117.043 40.928C117.043 42.6248 116.713 44.1487 116.053 45.5001C115.404 46.851 114.492 47.9194 113.32 48.7047C112.147 49.4904 110.78 49.8831 109.219 49.8831ZM105.009 38.2261C104.757 39.0009 104.632 39.9016 104.632 40.928C104.632 41.9544 104.757 42.8554 105.009 43.6303C105.26 44.4055 105.669 45.0075 106.234 45.4372C106.81 45.8665 107.575 46.081 108.528 46.081C109.45 46.081 110.204 45.8508 110.79 45.39C111.377 44.9292 111.812 44.3112 112.094 43.536C112.377 42.7506 112.518 41.8814 112.518 40.928C112.518 39.9854 112.372 39.1267 112.078 38.3518C111.785 37.5661 111.33 36.9429 110.712 36.4821C110.104 36.0108 109.324 35.7751 108.371 35.7751C107.481 35.7751 106.758 35.9898 106.203 36.4193C105.658 36.8487 105.26 37.4508 105.009 38.2261Z" fill="#EADAC5"/>
<path d="M94.1053 39.3882V49.4117H98.3783V38.2574C98.3783 36.4034 97.8808 34.9057 96.8858 33.764C95.9014 32.6119 94.4403 32.0359 92.5028 32.0359C91.3716 32.0359 90.3399 32.2873 89.4078 32.79C88.5543 33.2458 87.8581 33.8722 87.319 34.6693C86.917 33.9459 86.3615 33.3509 85.6529 32.8842C84.8047 32.3187 83.7154 32.0359 82.3854 32.0359C81.2227 32.0359 80.1701 32.2925 79.2275 32.8057C78.5151 33.1979 77.9128 33.6971 77.4206 34.3033V32.4444H73.6503V49.4117H77.9548V39.137C77.9548 38.163 78.222 37.3722 78.7562 36.7647C79.3009 36.1468 80.0181 35.8378 80.9082 35.8378C81.8407 35.8378 82.5684 36.152 83.0921 36.7805C83.6263 37.3984 83.8935 38.2678 83.8935 39.3882V49.4117H88.1665V39.137C88.1665 38.4876 88.2871 37.9167 88.5281 37.4246C88.7793 36.9219 89.1248 36.5343 89.565 36.262C90.0049 35.9792 90.5233 35.8378 91.1204 35.8378C92.0525 35.8378 92.7802 36.152 93.3039 36.7805C93.838 37.3984 94.1053 38.2678 94.1053 39.3882Z" fill="#EADAC5"/>
<path d="M58.3406 49.2387C59.1783 49.689 60.2624 49.9144 61.5927 49.9144C63.2578 49.9144 64.6353 49.5532 65.7246 48.8303C66.2416 48.4908 66.6971 48.1011 67.0913 47.662V49.4117H70.8619V32.4443H66.5571V41.0536C66.5571 42.101 66.4366 42.9492 66.1959 43.5987C65.9653 44.2377 65.667 44.7247 65.3001 45.0597C64.9337 45.3846 64.541 45.6043 64.1221 45.7196C63.7032 45.8349 63.3102 45.8926 62.9437 45.8926C62.0326 45.8926 61.3255 45.6882 60.8227 45.2798C60.3305 44.8714 59.9745 44.3634 59.7544 43.7559C59.5347 43.1483 59.4037 42.5461 59.3617 41.949C59.3198 41.3418 59.2988 40.8443 59.2988 40.4565V32.4443H54.963V41.9647C54.963 42.2477 54.9835 42.698 55.0255 43.3161C55.0674 43.9341 55.1879 44.6198 55.3871 45.3741C55.5858 46.1175 55.916 46.8351 56.3768 47.5265C56.8481 48.2175 57.5028 48.7884 58.3406 49.2387Z" fill="#EADAC5"/>
<path d="M118.929 32.4445V49.4118H123.234V40.7397C123.234 40.0902 123.323 39.5089 123.501 38.9957C123.679 38.472 123.941 38.0217 124.286 37.6447C124.632 37.2571 125.056 36.9482 125.559 36.7178C126.062 36.4769 126.622 36.3355 127.24 36.2936C127.868 36.2412 128.418 36.2883 128.889 36.435V32.4445C128.376 32.3817 127.863 32.3712 127.35 32.4131C126.836 32.4445 126.339 32.5335 125.857 32.6801C125.375 32.8163 124.93 33.0101 124.522 33.2614C123.988 33.5757 123.537 33.9736 123.171 34.4554C122.997 34.6835 122.84 34.9233 122.699 35.1749V32.4445H118.929Z" fill="#EADAC5"/>
<path fill-rule="evenodd" clip-rule="evenodd" d="M137.887 49.8831C136.148 49.8831 134.614 49.5114 133.284 48.7676C131.964 48.0137 130.927 46.982 130.173 45.6726C129.429 44.3531 129.057 42.8449 129.057 41.148C129.057 39.2944 129.424 37.6814 130.157 36.3092C130.89 34.9372 131.901 33.8741 133.189 33.12C134.477 32.3554 135.96 31.9731 137.635 31.9731C139.416 31.9731 140.929 32.3921 142.175 33.23C143.422 34.0679 144.344 35.2461 144.941 36.7648C145.538 38.2837 145.747 40.0692 145.569 42.1221H133.655C133.789 43.1406 134.105 43.9679 134.603 44.6043C135.294 45.4633 136.305 45.8927 137.635 45.8927C138.473 45.8927 139.191 45.7093 139.788 45.3428C140.385 44.9763 140.84 44.4474 141.154 43.756L145.428 44.9816C144.789 46.5317 143.778 47.7359 142.396 48.5946C141.024 49.4537 139.521 49.8831 137.887 49.8831ZM140.51 36.8277C140.875 37.3238 141.121 38.031 141.246 38.9485H133.768C133.934 38.165 134.213 37.5208 134.603 37.0162C135.294 36.1259 136.368 35.6808 137.824 35.6808C139.07 35.6808 139.966 36.0631 140.51 36.8277Z" fill="#EADAC5"/>
<path d="M155.586 49.4117V20.2139H159.859V49.4117H155.586Z" fill="#EADAC5"/>
<path fill-rule="evenodd" clip-rule="evenodd" d="M164.616 49.1917C165.465 49.6525 166.497 49.8831 167.711 49.8831C169.178 49.8831 170.387 49.6315 171.34 49.1288C172.1 48.7241 172.818 48.1245 173.493 47.329V49.4118H177.232V39.0428C177.232 38.2679 177.201 37.5661 177.138 36.9377C177.075 36.3093 176.876 35.6808 176.541 35.0524C175.944 33.9212 175.064 33.1253 173.901 32.6644C172.739 32.2036 171.409 31.9731 169.911 31.9731C167.868 31.9731 166.255 32.4131 165.072 33.2928C163.889 34.1726 163.082 35.3142 162.653 36.7177L166.518 37.943C166.79 37.1681 167.266 36.6287 167.947 36.325C168.628 36.0212 169.282 35.8693 169.911 35.8693C171.042 35.8693 171.848 36.105 172.33 36.5763C172.709 36.9464 172.938 37.4811 173.02 38.1807C172.296 38.2904 171.611 38.3945 170.963 38.4929C169.864 38.6501 168.879 38.8178 168.01 38.9956C167.14 39.1738 166.392 39.3782 165.763 39.6084C164.852 39.9434 164.124 40.3627 163.579 40.8654C163.045 41.3577 162.658 41.9282 162.417 42.5776C162.176 43.2271 162.055 43.9447 162.055 44.73C162.055 45.6726 162.27 46.5366 162.7 47.3223C163.14 48.0971 163.779 48.7204 164.616 49.1917ZM170.602 46.1124C170.068 46.3849 169.408 46.5212 168.622 46.5212C168.13 46.5212 167.706 46.4478 167.35 46.3011C166.994 46.1544 166.716 45.9451 166.518 45.6726C166.329 45.39 166.235 45.0546 166.235 44.6671C166.235 44.3845 166.292 44.1277 166.407 43.8975C166.533 43.6669 166.722 43.4577 166.973 43.269C167.235 43.0699 167.575 42.8868 167.994 42.7191C168.361 42.5829 168.785 42.4571 169.267 42.3422C169.748 42.2269 170.382 42.1011 171.167 41.9648C171.672 41.8709 172.277 41.7634 172.98 41.6433C172.971 41.942 172.953 42.2797 172.927 42.6562C172.896 43.2638 172.77 43.7979 172.55 44.2587C172.435 44.4994 172.215 44.7982 171.89 45.1541C171.576 45.5101 171.147 45.8298 170.602 46.1124Z" fill="#EADAC5"/>
<path fill-rule="evenodd" clip-rule="evenodd" d="M31.3799 32.5668H19.7756V37.6203C19.7756 45.1661 25.8928 51.2834 33.4387 51.2834C40.9846 51.2834 47.102 45.1661 47.102 37.6203V32.5668H35.1232V24.5187C35.1232 21.3143 32.5255 18.7166 29.321 18.7166C26.1166 18.7166 23.5189 21.3143 23.5189 24.5187H27.2622C27.2622 23.3816 28.184 22.4599 29.321 22.4599C30.4581 22.4599 31.3799 23.3816 31.3799 24.5187V32.5668ZM31.3799 36.3101V43.4224H35.1232V36.3101H43.3587V37.6203C43.3587 43.099 38.9172 47.5401 33.4387 47.5401C27.9601 47.5401 23.5189 43.099 23.5189 37.6203V36.3101H31.3799Z" fill="#EADAC5"/>
</svg>
